HIERARCHY
ROOT Hips
{
	OFFSET 0.00000 0.00000 0.00000
	CHANNELS 6 Xposition Yposition Zposition Yrotation Zrotation Xrotation 
	JOINT Lumbar
	{
		OFFSET 0 0 0
		CHANNELS 3 Zrotation Xrotation Yrotation
		JOINT Neck
		{
			OFFSET 0.00 0.2701 0.00
			CHANNELS 3 Zrotation Xrotation Yrotation
			End Site
			{
				OFFSET 0.00 0.1379 0.00
			}
		}
		JOINT RightShoulder
		{
			OFFSET 0.0119 0.2289 0.1181
			CHANNELS 3 Zrotation Xrotation Yrotation
			JOINT RightElbow
			{
				OFFSET 0.00 -0.1475 0.00
				CHANNELS 2 Zrotation Yrotation
				JOINT RightWrist
				{
					OFFSET 0.00 -0.1605 0.00
					CHANNELS 2 Zrotation Xrotation
					End Site
					{
						OFFSET 0.0040 -0.1068 0.0006
					}
				}
			}
		}
		JOINT LeftShoulder
		{
			OFFSET 0.0119 0.2289 -0.1181
			CHANNELS 3 Zrotation Xrotation Yrotation
			JOINT LeftElbow
			{
				OFFSET 0.00 -0.1475 0.00
				CHANNELS 2 Zrotation Yrotation
				JOINT LeftWrist
				{
					OFFSET 0.00 -0.1605 0.00
					CHANNELS 2 Zrotation Xrotation
					End Site
					{
						OFFSET 0.0040 -0.1068 -0.0006
					}
				}
			}
		}
	}
	JOINT RightHip
	{
		OFFSET 0.0316 -0.0424 0.0458
		CHANNELS 3 Zrotation Xrotation Yrotation
		JOINT RightKnee
		{
			OFFSET 0.00 -0.2438 0.00
			CHANNELS 1 Zrotation
			JOINT RightAnkle
			{
				OFFSET 0.00 -0.2449 0.00
				CHANNELS 3 Zrotation Xrotation Yrotation
				End Site
				{
					OFFSET 0.1237 -0.0542 0.0051
				}
			}
		}
	}
	JOINT LeftHip
	{
		OFFSET 0.0316 -0.0424 -0.0458
		CHANNELS 3 Zrotation Xrotation Yrotation
		JOINT LeftKnee
		{
			OFFSET 0.00 -0.2438 0.00
			CHANNELS 1 Zrotation
			JOINT LeftAnkle
			{
				OFFSET 0.00 -0.2449 0.00
				CHANNELS 3 Zrotation Xrotation Yrotation
				End Site
				{
					OFFSET 0.1237 -0.0542 -0.0051
				}
			}
		}
	}
}
MOTION
Frames: 24
Frame Time: 0.02
-0.08167 -0.61013 -0.3819 -65.60093 10.12555 8.7846 -17.35604 4.657 -1.74714 -18.14604 5.03496 -2.11994 37.43902 8.29864 23.5656 35.19132 105.06824 -19.60615 -8.13868 33.91945 -2.64784 -19.25379 34.93796 -104.83645 -15.89236 9.31544 126.68097 -32.08564 -34.15751 -119.43976 22.22815 14.32843 2.39944 126.68096 32.08563 27.75766 -122.432 22.28186 -33.10335 -12.9973
-0.08165 -0.61014 -0.3819 -65.64011 10.27937 8.79289 -17.26951 4.58454 -1.53287 -18.50394 5.20061 -2.11994 36.15607 7.75603 22.40695 36.36516 105.15555 -19.48669 -7.88353 32.71793 -2.73259 -17.89451 35.69618 -103.27615 -15.75294 9.04096 126.68097 -32.08564 -33.84893 -119.5082 21.69732 14.98417 2.80058 126.68096 32.08562 27.50661 -122.44772 22.28183 -33.10268 -12.99708
-0.08166 -0.61013 -0.38191 -65.68325 10.43207 8.80841 -17.11451 4.49966 -1.34259 -18.91166 5.31253 -2.11994 34.85189 7.26101 21.32573 37.2774 104.75702 -19.14929 -7.4802 31.575 -2.85712 -16.71018 36.13395 -100.29192 -15.16597 8.57742 126.68097 -32.08564 -33.51693 -119.59782 21.00028 15.65587 3.30283 126.68096 32.08562 27.23962 -122.46919 22.28078 -33.10252 -12.99723
-0.08166 -0.61014 -0.38193 -65.72388 10.58846 8.82008 -16.99012 4.42229 -1.1503 -19.27785 5.43836 -2.11994 33.57688 6.75159 20.24927 38.2624 104.58654 -18.92277 -7.14657 30.42331 -2.95826 -15.48736 36.67846 -98.03872 -14.79176 8.1855 126.68097 -32.08564 -33.20355 -119.67175 20.37007 16.2936 3.72874 126.68096 32.08562 26.97883 -122.48832 22.28084 -33.1022 -12.99725
-0.08163 -0.61011 -0.38192 -65.76727 10.73276 8.83403 -16.86995 4.33678 -0.91842 -19.72663 5.60977 -2.11994 32.21327 6.20881 18.99246 39.45024 104.40511 -18.64956 -6.79677 29.18581 -3.08513 -14.07299 37.39296 -95.47079 -14.39105 7.8497 126.68097 -32.08563 -32.85497 -119.77156 19.77964 17.05289 4.27832 126.68096 32.08562 26.7192 -122.50691 22.28195 -33.10155 -12.9971
-0.08166 -0.61016 -0.38197 -65.80654 10.90215 8.84501 -16.72407 4.26535 -0.77542 -20.01391 5.67322 -2.11994 31.03191 5.74869 18.13735 40.14949 104.12466 -18.42531 -6.45128 28.14632 -3.16727 -13.10728 37.67545 -93.20586 -13.93897 7.35982 126.68097 -32.08563 -32.57357 -119.82331 19.06272 17.55689 4.60028 126.68096 32.08562 26.4543 -122.52771 22.27589 -33.10171 -12.99738
-0.08187 -0.61039 -0.3822 -65.82631 11.1335 8.84584 -16.52264 4.23619 -0.87314 -19.8468 5.44894 -2.11994 30.35511 5.49601 18.33335 39.57276 103.67784 -18.33091 -6.10978 27.62292 -3.10751 -13.32523 36.8375 -92.11535 -13.39481 6.41401 126.68097 -32.08564 -32.49726 -119.72589 18.07248 17.38329 4.21619 126.68096 32.08563 26.18201 -122.55413 22.28741 -33.10415 -12.99883
-0.08214 -0.61071 -0.3825 -65.84317 11.39178 8.84361 -16.29786 4.22168 -1.05966 -19.51527 5.11802 -2.11994 29.86437 5.32713 18.93905 38.51009 103.14889 -18.3027 -5.78504 27.30139 -3.00227 -13.99364 35.5756 -91.37488 -12.82204 5.33247 126.68096 -32.08561 -32.48681 -119.58141 16.95311 16.94592 3.60867 126.68096 32.08563 25.90434 -122.5825 22.28241 -33.10733 -13.00067
-0.08238 -0.61099 -0.38277 -65.86586 11.64174 8.8428 -16.08402 4.20016 -1.20499 -19.25504 4.83772 -2.11994 29.29134 5.12584 19.38444 37.66351 102.66037 -18.28182 -5.48355 26.89895 -2.92312 -14.46615 34.51141 -90.47567 -12.30007 4.36444 126.68098 -32.08566 -32.43799 -119.46551 15.87104 16.60752 3.13891 126.68097 32.08563 25.62822 -122.60911 22.26375 -33.1101 -13.00229
-0.08264 -0.61126 -0.38303 -65.86923 11.873 8.84166 -15.8655 4.17935 -1.35436 -19.00738 4.54708 -2.11994 28.70637 4.90114 19.72453 36.8301 102.13591 -18.09684 -5.05177 26.45128 -2.82307 -14.90638 33.41681 -89.52712 -11.60693 3.17571 126.68097 -32.08565 -32.42545 -119.31949 14.87761 16.35652 2.52266 126.68097 32.08563 25.35746 -122.63898 22.3444 -33.11331 -13.00415
-0.08288 -0.61158 -0.38333 -65.91263 12.15233 8.84094 -15.65326 4.1611 -1.51644 -18.69842 4.25258 -2.11994 28.19268 4.74587 20.37849 35.85457 101.68089 -18.27059 -4.8907 26.14677 -2.75455 -15.51965 32.28657 -88.78161 -11.26465 2.41105 126.6809 -32.08552 -32.35141 -119.2254 13.66583 15.86247 2.15351 126.68097 32.08564 25.0717 -122.66324 22.20177 -33.11564 -13.00555
-0.08306 -0.612 -0.38375 -66.06323 12.53535 8.83749 -15.45466 4.14309 -1.6889 -18.22223 3.98053 -2.11994 27.81517 4.75025 21.81363 34.62921 101.36804 -19.43097 -5.53119 26.17352 -2.7902 -16.48935 31.1839 -88.52801 -11.93922 2.90236 126.68113 -32.08592 -32.10734 -119.28025 11.931 14.74492 2.55008 126.68097 32.08564 24.76951 -122.66478 21.55184 -33.11585 -13.00575
-0.08322 -0.61248 -0.38421 -66.25519 12.97051 8.83556 -15.26568 4.1278 -1.87153 -17.698 3.70735 -2.11994 27.50656 4.82378 23.54685 33.27469 101.14032 -20.94711 -6.43392 26.33981 -2.85816 -17.61719 30.05747 -88.47108 -12.96215 3.81671 126.68077 -32.08529 -31.79604 -119.38979 9.97483 13.39471 3.19567 126.68097 32.08564 24.44784 -122.66183 20.65713 -33.11452 -13.00527
-0.08338 -0.61296 -0.38465 -66.43054 13.39588 8.83574 -15.07828 4.11353 -2.05132 -17.21914 3.43019 -2.11994 27.17562 4.8727 25.13424 31.96473 100.92551 -22.29567 -7.17864 26.45164 -2.90679 -18.68132 28.92885 -88.31946 -13.80122 4.50406 126.68092 -32.08554 -31.50552 -119.4784 8.08647 12.16232 3.70982 126.68097 32.08564 24.11994 -122.66531 19.80672 -33.11422 -13.00522
-0.08358 -0.61336 -0.38507 -66.5956 13.76144 8.82332 -14.86324 4.0904 -2.22666 -16.63066 3.16776 -2.11994 26.81056 4.89479 26.78191 30.69632 100.50195 -23.67859 -8.08584 26.53294 -2.97214 -19.73391 27.83987 -88.1995 -14.74792 5.33211 126.68184 -32.08715 -31.25946 -119.5497 6.32313 10.87066 4.29953 126.68097 32.08564 23.8565 -122.65029 19.24237 -33.11469 -13.00542
-0.0837 -0.61392 -0.38555 -66.79316 14.26619 8.83836 -14.71047 4.08595 -2.41257 -16.26691 2.8764 -2.11994 26.53388 4.98935 28.36674 29.31831 100.51913 -25.06447 -8.71914 26.70808 -3.01263 -20.83332 26.66853 -88.05853 -15.55229 5.97081 126.67875 -32.08181 -30.90281 -119.66954 4.25948 9.64945 4.78617 126.68097 32.08564 23.45301 -122.67276 18.01924 -33.11049 -13.00399
-0.08366 -0.61487 -0.38615 -67.06 15.11972 8.92199 -14.70912 4.13414 -2.6238 -16.48732 2.50134 -2.11994 26.45419 5.25547 29.72548 27.66227 101.86675 -26.4503 -8.51087 27.10962 -2.96237 -22.09309 25.2764 -87.78725 -15.88858 5.97148 126.68387 -32.09056 -30.2673 -119.91953 1.32843 8.69263 4.99688 126.68097 32.08564 22.67872 -122.79977 15.08352 -33.11638 -13.00604
-0.08354 -0.61597 -0.38682 -67.35994 16.11518 9.03457 -14.77336 4.20052 -2.84478 -16.94491 2.09906 -2.11994 26.46529 5.59353 31.00414 25.90502 103.63097 -27.81224 -8.02165 27.59955 -2.88909 -23.37653 23.80478 -87.48945 -16.06673 5.76989 126.68115 -32.08615 -29.521 -120.21485 -1.87875 7.81471 5.08519 126.68097 32.08564 21.76267 -122.96482 11.48753 -33.11301 -13.00485
-0.08346 -0.61701 -0.38747 -67.65169 17.06111 9.1383 -14.81998 4.25747 -3.06216 -17.32693 1.71174 -2.11994 26.45431 5.90633 32.3049 24.20007 105.11612 -29.13257 -7.67496 28.04698 -2.83556 -24.6045 22.37054 -87.21988 -16.31232 5.66925 126.6698 -32.06613 -28.81792 -120.48358 -4.899 6.8922 5.18274 126.68097 32.08564 20.90353 -123.11233 8.15971 -33.09955 -13.00024
-0.08337 -0.61799 -0.38806 -67.91648 17.94762 9.22357 -14.81663 4.31982 -3.27783 -17.57306 1.3111 -2.11994 26.3669 6.19168 33.67947 22.46013 106.98063 -30.68511 -7.27522 28.50903 -2.74291 -26.03806 20.9277 -86.89512 -16.59358 5.54508 126.71096 -32.13734 -28.14094 -120.7799 -8.18874 5.99398 5.4773 126.68097 32.08564 20.07313 -123.26017 4.9462 -33.14801 -13.01699
-0.08328 -0.61914 -0.38879 -68.2441 18.98845 9.35456 -14.93136 4.37471 -3.49749 -18.15682 0.93463 -2.11994 26.45679 6.54855 34.87381 20.7752 108.15587 -31.7459 -6.91521 28.96002 -2.72714 -27.03311 19.48699 -86.66882 -16.75239 5.4165 126.63961 -32.01528 -27.38628 -121.02826 -10.97698 5.07237 5.33845 126.68097 32.08564 19.15232 -123.41712 1.35575 -33.06331 -12.98759
-0.08315 -0.62075 -0.38992 -68.74173 20.44032 9.60095 -15.36769 4.409 -3.74076 -19.63468 0.60702 -2.11994 27.03412 7.09997 35.61635 19.23237 107.29888 -31.43218 -6.73778 29.35349 -2.91738 -26.93545 18.05169 -86.7866 -16.66526 5.32224 126.27234 -31.36563 -26.42681 -121.13945 -12.33512 4.02188 3.95189 126.68097 32.08564 17.99272 -123.58474 -3.23596 -32.63257 -12.8401
-0.08303 -0.62252 -0.3912 -69.29995 22.0377 9.8928 -15.91779 4.43442 -3.985 -21.43975 0.30913 -2.11994 27.78184 7.71745 36.17264 17.7568 105.73849 -30.62611 -6.60795 29.73139 -3.18723 -26.37707 16.62703 -86.9925 -16.45111 5.22885 125.79105 -30.52279 -25.39698 -121.20067 -13.17345 2.95459 2.14688 126.68097 32.08563 16.75209 -123.76179 -8.15762 -32.06626 -12.64537
-0.08291 -0.6242 -0.39241 -69.82774 23.55652 10.16663 -16.40888 4.46083 -4.21874 -23.08348 0.01395 -2.11994 28.43907 8.29515 36.79688 16.27222 104.5174 -30.05926 -6.4523 30.12132 -3.4291 -25.94063 15.20836 -87.1121 -16.25508 5.13503 125.35188 -29.76479 -24.41064 -121.27868 -14.23435 1.92589 0.58573 126.68097 32.08563 15.56362 -123.9372 -12.85031 -31.54712 -12.46579
